<?xml version="1.0" encoding="UTF-8" standalone="no"?>
<!-- Generator: Adobe Illustrator 16.0.4, SVG Export Plug-In . SVG Version: 6.00 Build 0)  -->

<svg
   xmlns:dc="http://purl.org/dc/elements/1.1/"
   xmlns:cc="http://creativecommons.org/ns#"
   xmlns:rdf="http://www.w3.org/1999/02/22-rdf-syntax-ns#"
   xmlns:svg="http://www.w3.org/2000/svg"
   xmlns="http://www.w3.org/2000/svg"
   xmlns:sodipodi="http://sodipodi.sourceforge.net/DTD/sodipodi-0.dtd"
   xmlns:inkscape="http://www.inkscape.org/namespaces/inkscape"
   version="1.1"
   id="Ebene_1"
   x="0px"
   y="0px"
   width="95.698997"
   height="52.632999"
   viewBox="0 0 95.698999 52.633"
   enable-background="new 0 0 566.93 566.93"
   xml:space="preserve"
   inkscape:version="0.48.4 r9939"
   sodipodi:docname="bus.svg"><metadata
     id="metadata15"><rdf:RDF><cc:Work
         rdf:about=""><dc:format>image/svg+xml</dc:format><dc:type
           rdf:resource="http://purl.org/dc/dcmitype/StillImage" /></cc:Work></rdf:RDF></metadata><defs
     id="defs13" /><sodipodi:namedview
     pagecolor="#ffffff"
     bordercolor="#666666"
     borderopacity="1"
     objecttolerance="10"
     gridtolerance="10"
     guidetolerance="10"
     inkscape:pageopacity="0"
     inkscape:pageshadow="2"
     inkscape:window-width="1855"
     inkscape:window-height="1056"
     id="namedview11"
     showgrid="false"
     fit-margin-top="0"
     fit-margin-left="0"
     fit-margin-right="0"
     fit-margin-bottom="0"
     inkscape:zoom="0.41627715"
     inkscape:cx="47.464999"
     inkscape:cy="26.463"
     inkscape:window-x="1665"
     inkscape:window-y="24"
     inkscape:window-maximized="1"
     inkscape:current-layer="Ebene_1" /><g
     id="g3"
     transform="translate(-236,-257.295)"><path
       d="m 312.561,276.435 v -14.354 c 7.928,0 14.354,6.427 14.354,14.354 h -14.354 z m 14.354,14.356 c 0,2.637 -2.147,4.785 -4.785,4.785 h -0.242 c -1.108,-5.461 -5.934,-9.57 -11.72,-9.57 -5.789,0 -10.613,4.109 -11.721,9.57 h -9.812 V 281.22 h 38.28 v 9.571 z m -16.747,14.354 c -3.958,0 -7.178,-3.219 -7.178,-7.178 0,-3.957 3.22,-7.176 7.178,-7.176 3.957,0 7.177,3.219 7.177,7.176 0,3.959 -3.22,7.178 -7.177,7.178 m -40.915,-9.569 c -1.108,-5.461 -5.934,-9.57 -11.72,-9.57 -5.789,0 -10.613,4.109 -11.721,9.57 h -0.242 c -2.638,0 -4.785,-2.148 -4.785,-4.785 v -9.571 h 43.065 v 14.356 h -14.597 z m -11.72,9.569 c -3.958,0 -7.178,-3.219 -7.178,-7.178 0,-3.957 3.22,-7.176 7.178,-7.176 3.957,0 7.177,3.219 7.177,7.176 0,3.959 -3.22,7.178 -7.177,7.178 m -16.748,-38.279 c 0,-2.639 2.147,-4.785 4.785,-4.785 h 14.355 v 14.354 h -19.14 v -9.569 z m 43.065,9.569 h -19.14 v -14.354 h 19.14 v 14.354 z m 23.925,0 h -19.141 v -14.354 h 19.141 v 14.354 z m 4.786,-19.14 H 245.57 c -5.285,0 -9.57,4.285 -9.57,9.57 v 23.925 c 0,5.285 4.285,9.568 9.57,9.568 h 0.242 c 1.108,5.459 5.932,9.57 11.721,9.57 5.786,0 10.612,-4.111 11.72,-9.57 h 29.194 c 1.107,5.459 5.932,9.57 11.721,9.57 5.786,0 10.611,-4.111 11.72,-9.57 h 0.242 c 5.285,0 9.569,-4.283 9.569,-9.568 v -14.356 c 0,-10.553 -8.586,-19.139 -19.138,-19.139"
       id="path5"
       inkscape:connector-curvature="0" /><path
       d="m 257.533,295.574 c -1.321,0 -2.392,1.072 -2.392,2.395 0,1.32 1.071,2.391 2.392,2.391 1.321,0 2.392,-1.07 2.392,-2.391 -0.001,-1.323 -1.071,-2.395 -2.392,-2.395"
       id="path7"
       inkscape:connector-curvature="0" /><path
       d="m 310.168,295.574 c -1.321,0 -2.393,1.072 -2.393,2.395 0,1.32 1.071,2.391 2.393,2.391 1.32,0 2.392,-1.07 2.392,-2.391 0,-1.323 -1.072,-2.395 -2.392,-2.395"
       id="path9"
       inkscape:connector-curvature="0" /></g></svg>