<?xml version="1.0" encoding="utf-8"?>
<!-- Generator: Adobe Illustrator 16.0.0, SVG Export Plug-In . SVG Version: 6.00 Build 0)  -->
<!DOCTYPE svg PUBLIC "-//W3C//DTD SVG 1.1//EN" "http://www.w3.org/Graphics/SVG/1.1/DTD/svg11.dtd">
<svg version="1.1" id="NOI_BrandGuide_IDM_20171020_low"
	 xmlns="http://www.w3.org/2000/svg" xmlns:xlink="http://www.w3.org/1999/xlink" x="0px" y="0px" width="612px" height="698.062px"
	 viewBox="0 93.938 612 698.062" enable-background="new 0 93.938 612 698.062" xml:space="preserve">
<path id="Path_335" fill="#9ED2F1" d="M612,792h-10.501l-95.667-186.913L612,300.631V792z"/>
<path id="Path_336" fill="#FFD400" d="M447.845,93.938l-327.55,196.481l39.93-196.481H447.845z"/>
<path id="Path_337" fill="#B5CC2D" d="M612,93.938v206.693L505.832,605.087L120.294,290.418l327.55-196.481H612z"/>
<path id="Path_338" fill="#FFDD5D" d="M160.225,93.938l-39.931,196.481L0,236.402V93.938H160.225z"/>
<path id="Path_339" fill="#B6DBF4" d="M601.499,792H385.422l120.41-186.913L601.499,792z"/>
<path id="Path_340" fill="#F58220" d="M120.295,290.418L0,683.047V236.401L120.295,290.418z"/>
<path id="Path_341" fill="#C5D564" d="M505.832,605.087L385.422,792H153.292l-32.998-501.582L505.832,605.087z"/>
<path id="Path_342" fill="#F89E53" d="M153.292,792H0V682.119l120.295-391.701L153.292,792z"/>
</svg>
