<?xml version="1.0" encoding="utf-8"?>
<!-- Generator: Adobe Illustrator 16.0.4, SVG Export Plug-In . SVG Version: 6.00 Build 0)  -->
<!DOCTYPE svg PUBLIC "-//W3C//DTD SVG 1.1//EN" "http://www.w3.org/Graphics/SVG/1.1/DTD/svg11.dtd">
<svg version="1.1" id="Ebene_1" xmlns="http://www.w3.org/2000/svg" xmlns:xlink="http://www.w3.org/1999/xlink" x="0px" y="0px"
	 width="566.93px" height="566.93px" viewBox="0 0 566.93 566.93" enable-background="new 0 0 566.93 566.93" xml:space="preserve">
<g>
	<g>
		<path d="M283.936,267.476c-0.706,0-1.279,0.573-1.279,1.28v12.823h-10.235c-0.707,0-1.28,0.573-1.28,1.28
			c0,0.706,0.573,1.279,1.28,1.279h11.514c0.707,0,1.279-0.573,1.279-1.279v-14.104
			C285.215,268.049,284.643,267.476,283.936,267.476 M283.936,300.74c-9.892,0-17.911-8.02-17.911-17.911
			c0-9.892,8.019-17.911,17.911-17.911c9.893,0,17.912,8.02,17.912,17.911C301.848,292.721,293.829,300.74,283.936,300.74
			 M283.936,262.359c-11.306,0-20.47,9.166-20.47,20.471c0,11.305,9.164,20.469,20.47,20.469c11.306,0,20.47-9.164,20.47-20.469
			C304.406,271.525,295.242,262.359,283.936,262.359"/>
	</g>
	<g>
		<line x1="303.872" y1="263.057" x2="264" y2="302.93"/>
		<path fill="#E53934" d="M264,305.93c-0.768,0-1.536-0.293-2.121-0.879c-1.172-1.171-1.172-3.07,0-4.242l39.872-39.873
			c1.172-1.172,3.07-1.171,4.242,0c1.172,1.172,1.172,3.071,0,4.243l-39.871,39.873C265.536,305.637,264.768,305.93,264,305.93z"/>
	</g>
</g>
</svg>
