<?xml version="1.0" encoding="UTF-8" standalone="no"?>
<!-- Generator: Adobe Illustrator 16.0.4, SVG Export Plug-In . SVG Version: 6.00 Build 0)  -->

<svg
   xmlns:dc="http://purl.org/dc/elements/1.1/"
   xmlns:cc="http://creativecommons.org/ns#"
   xmlns:rdf="http://www.w3.org/1999/02/22-rdf-syntax-ns#"
   xmlns:svg="http://www.w3.org/2000/svg"
   xmlns="http://www.w3.org/2000/svg"
   xmlns:sodipodi="http://sodipodi.sourceforge.net/DTD/sodipodi-0.dtd"
   xmlns:inkscape="http://www.inkscape.org/namespaces/inkscape"
   version="1.1"
   id="Ebene_1"
   x="0px"
   y="0px"
   width="68.185997"
   height="68.184998"
   viewBox="0 0 68.185998 68.184998"
   enable-background="new 0 0 566.93 566.93"
   xml:space="preserve"
   inkscape:version="0.48.4 r9939"
   sodipodi:docname="clock.svg"><metadata
     id="metadata11"><rdf:RDF><cc:Work
         rdf:about=""><dc:format>image/svg+xml</dc:format><dc:type
           rdf:resource="http://purl.org/dc/dcmitype/StillImage" /></cc:Work></rdf:RDF></metadata><defs
     id="defs9" /><sodipodi:namedview
     pagecolor="#ffffff"
     bordercolor="#666666"
     borderopacity="1"
     objecttolerance="10"
     gridtolerance="10"
     guidetolerance="10"
     inkscape:pageopacity="0"
     inkscape:pageshadow="2"
     inkscape:window-width="1855"
     inkscape:window-height="1056"
     id="namedview7"
     showgrid="false"
     fit-margin-top="0"
     fit-margin-left="0"
     fit-margin-right="0"
     fit-margin-bottom="0"
     inkscape:zoom="0.41627715"
     inkscape:cx="33.465"
     inkscape:cy="34.465"
     inkscape:window-x="1665"
     inkscape:window-y="24"
     inkscape:window-maximized="1"
     inkscape:current-layer="Ebene_1" /><g
     id="g3"
     transform="translate(-250,-249.745)"><path
       d="m 284.093,258.268 c -1.176,0 -2.131,0.953 -2.131,2.131 v 21.358 h -17.046 c -1.178,0 -2.131,0.954 -2.131,2.133 0,1.174 0.953,2.127 2.131,2.127 h 19.177 c 1.178,0 2.131,-0.953 2.131,-2.127 v -23.491 c 0,-1.178 -0.953,-2.131 -2.131,-2.131 m 0,55.4 c -16.476,0 -29.831,-13.354 -29.831,-29.831 0,-16.475 13.355,-29.83 29.831,-29.83 16.476,0 29.831,13.355 29.831,29.83 0,16.477 -13.356,29.831 -29.831,29.831 m 0,-63.923 c -18.83,0 -34.093,15.266 -34.093,34.093 0,18.829 15.263,34.092 34.093,34.092 18.83,0 34.093,-15.264 34.093,-34.092 0,-18.828 -15.263,-34.093 -34.093,-34.093"
       id="path5"
       inkscape:connector-curvature="0" /></g></svg>